<svg width="24" height="24" fill="none" xmlns="http://www.w3.org/2000/svg"><g clip-path="url(#a)"><path d="M21 24h-6v-9h2.91l.765-3H15V8.4a1.8 1.8 0 0 1 1.8-1.8h1.8v-3h-1.8A4.808 4.808 0 0 0 12 8.4V12H9v3h3v9H3a3 3 0 0 1-3-3V3a3 3 0 0 1 3-3h18a3 3 0 0 1 3 3v18a3 3 0 0 1-3 3Zm-4.8-1.2H21a1.8 1.8 0 0 0 1.8-1.8V3A1.8 1.8 0 0 0 21 1.2H3A1.8 1.8 0 0 0 1.2 3v18A1.8 1.8 0 0 0 3 22.8h7.8v-6.6h-3v-5.4h3V8.4a6.007 6.007 0 0 1 6-6h3v5.4h-3a.6.6 0 0 0-.6.6v2.4h4.02l-1.38 5.4H16.2v6.6Z" fill="#000"/></g><defs><clipPath id="a"><path fill="#fff" d="M0 0h24v24H0z"/></clipPath></defs></svg>