<svg width="512" height="512" viewBox="0 0 512 512" fill="none" xmlns="http://www.w3.org/2000/svg">
<rect width="512" height="512" fill="#FFDB01"/>
<path d="M409.416 174.027C390.658 154.822 368.326 145.443 341.975 145.443C327.237 145.443 313.391 148.569 300.886 154.376C288.38 160.628 277.215 169.561 266.942 182.066V78.0025H243.271C243.271 77.5559 243.271 136.51 243.271 254.866C243.271 255.313 243.271 255.313 243.271 255.76C243.271 260.226 243.271 265.585 243.271 270.945C242.825 270.498 242.378 270.052 242.378 269.605C223.62 249.06 199.502 238.341 170.918 238.341C142.334 238.341 118.216 248.614 99.4577 269.605C82.4859 288.81 74 311.141 74 337.045C74 362.95 82.9325 385.728 101.244 404.933C119.556 424.137 142.78 433.963 171.364 433.963C206.201 430.837 230.319 416.991 243.718 392.427C243.718 419.671 243.718 433.963 243.718 434.857C249.524 434.857 258.01 434.857 269.175 434.857C269.622 433.963 269.622 400.913 269.175 336.599C269.175 332.133 268.729 322.307 267.836 309.801C277.661 319.627 287.934 326.773 299.099 331.686C312.498 337.492 326.79 340.618 341.975 340.618C368.326 340.618 391.104 331.239 409.863 312.034C428.621 292.83 438 270.052 438 243.254C437.553 216.457 428.174 193.232 409.416 174.027ZM239.698 348.211C221.387 397.787 190.123 417.438 146.353 408.059C128.935 399.573 116.429 388.854 109.283 376.349C102.137 363.843 98.1178 350.891 98.1178 337.492C98.1178 316.501 105.264 298.636 119.556 283.897C133.848 269.158 150.82 262.012 170.918 262.012C190.569 262.012 207.541 269.605 221.387 283.897C226.746 289.703 231.212 295.956 234.339 302.655C239.252 317.394 241.038 332.579 239.698 348.211ZM403.61 280.771C396.91 292.383 387.978 301.762 376.812 308.461C365.647 315.161 353.141 318.287 339.742 318.287C319.198 318.287 301.779 311.141 287.487 296.403C273.195 282.11 266.049 263.799 266.049 242.361C266.049 228.515 269.175 215.563 275.428 204.398C281.681 192.785 291.06 183.853 302.672 177.153C314.285 170.454 326.79 167.328 340.189 167.328C353.141 167.328 365.2 170.454 376.812 177.153C388.425 183.853 397.357 193.232 404.056 205.291C410.756 217.35 414.329 229.855 414.329 243.254C413.436 256.206 410.309 268.712 403.61 280.771Z" fill="#232323"/>
</svg>
