<svg width="24" height="24" fill="none" xmlns="http://www.w3.org/2000/svg"><path d="M17.42 0H6.58A6.587 6.587 0 0 0 0 6.58v10.84A6.587 6.587 0 0 0 6.58 24h10.84A6.587 6.587 0 0 0 24 17.42V6.58A6.587 6.587 0 0 0 17.42 0Zm5.163 17.42a5.168 5.168 0 0 1-5.162 5.163H6.579a5.168 5.168 0 0 1-5.162-5.162V6.579A5.168 5.168 0 0 1 6.58 1.417h10.842a5.168 5.168 0 0 1 5.162 5.162v10.842Z" fill="#000"/><path d="M12 5.417A6.59 6.59 0 0 0 5.417 12 6.59 6.59 0 0 0 12 18.583 6.59 6.59 0 0 0 18.583 12 6.59 6.59 0 0 0 12 5.417Zm0 11.749A5.171 5.171 0 0 1 6.835 12 5.171 5.171 0 0 1 12 6.835 5.171 5.171 0 0 1 17.166 12 5.171 5.171 0 0 1 12 17.166ZM18.976 3.024c-1.102 0-2 .897-2 2 0 1.102.898 2 2 2 1.103 0 2-.898 2-2 0-1.103-.897-2-2-2Zm0 2.582a.583.583 0 1 1 .002-1.166.583.583 0 0 1-.002 1.166Z" fill="#000"/></svg>