<svg width="56" height="55" viewBox="0 0 56 55" fill="none" xmlns="http://www.w3.org/2000/svg">
<path d="M51.6025 14.7734C48.7166 11.8188 45.281 10.3758 41.227 10.3758C38.9595 10.3758 36.8294 10.8568 34.9055 11.7501C32.9816 12.712 31.2638 14.0863 29.6834 16.0102V0.000387472H26.0417C26.0417 -0.0683242 26.0417 9.00161 26.0417 27.2102C26.0417 27.2789 26.0417 27.2789 26.0417 27.3476C26.0417 28.0347 26.0417 28.8593 26.0417 29.6838C25.973 29.6151 25.9043 29.5464 25.9043 29.4777C23.0184 26.317 19.308 24.6679 14.9104 24.6679C10.5129 24.6679 6.80245 26.2482 3.91656 29.4777C1.30552 32.4323 0 35.8679 0 39.8531C0 43.8384 1.37423 47.3427 4.19141 50.2973C7.00859 53.2519 10.5816 54.7636 14.9791 54.7636C20.3386 54.2826 24.0491 52.1525 26.1104 48.3734C26.1104 52.5648 26.1104 54.7636 26.1104 54.901C27.0037 54.901 28.3092 54.901 30.027 54.901C30.0957 54.7636 30.0957 49.6789 30.027 39.7844C30.027 39.0973 29.9583 37.5857 29.8209 35.6617C31.3325 37.1734 32.9129 38.2728 34.6307 39.0286C36.692 39.9219 38.8908 40.4028 41.227 40.4028C45.281 40.4028 48.7853 38.9599 51.6712 36.0053C54.5571 33.0507 56 29.5464 56 25.4237C55.9313 21.301 54.4883 17.728 51.6025 14.7734ZM25.492 41.5709C22.6748 49.1979 17.865 52.2212 11.1313 50.7783C8.45153 49.4728 6.52761 47.8237 5.42822 45.8998C4.32883 43.9759 3.71043 41.9832 3.71043 39.9219C3.71043 36.6924 4.80982 33.9439 7.00859 31.6765C9.20736 29.409 11.8184 28.3096 14.9104 28.3096C17.9337 28.3096 20.5448 29.4777 22.6748 31.6765C23.4994 32.5697 24.1865 33.5317 24.6675 34.5624C25.4233 36.8298 25.6982 39.166 25.492 41.5709ZM50.7092 31.1955C49.6785 32.982 48.3043 34.4249 46.5865 35.4556C44.8687 36.4863 42.9448 36.9673 40.8834 36.9673C37.7227 36.9673 35.0429 35.8679 32.8442 33.6004C30.6454 31.4016 29.546 28.5844 29.546 25.2863C29.546 23.1562 30.027 21.1636 30.989 19.4458C31.9509 17.6593 33.3939 16.2851 35.1804 15.2544C36.9669 14.2237 38.8908 13.7427 40.9521 13.7427C42.9448 13.7427 44.8 14.2237 46.5865 15.2544C48.373 16.2851 49.7472 17.728 50.7779 19.5832C51.8086 21.4384 52.3583 23.3624 52.3583 25.4237C52.2209 27.4163 51.7399 29.3403 50.7092 31.1955Z" fill="#232323"/>
</svg>
