<svg width="176" height="653" viewBox="0 0 176 653" fill="none" xmlns="http://www.w3.org/2000/svg">
<path d="M175.705 46.9174L175.975 47.6807L176.514 47.4897L176.514 46.9174L175.705 46.9174ZM50.4463 91.2797L50.176 90.5164L48.015 91.2818L50.1773 92.0435L50.4463 91.2797ZM175.705 135.405L176.514 135.405L176.514 134.832L175.974 134.641L175.705 135.405ZM175.705 182.139L175.705 182.949L176.514 182.949L176.514 182.139L175.705 182.139ZM2.99999 182.139L2.19024 182.139L2.19024 182.949L2.99999 182.949L2.99999 182.139ZM2.99999 146.436L2.99999 145.626L2.19024 145.626L2.19024 146.436L2.99999 146.436ZM50.2091 146.436L50.2444 145.627L50.2267 145.626L50.2091 145.626L50.2091 146.436ZM131.698 149.995L131.663 150.804L131.974 149.233L131.698 149.995ZM2.99999 103.379L2.19024 103.379L2.19024 103.946L2.72423 104.14L2.99999 103.379ZM3 78.9437L2.72462 78.1822L2.19025 78.3754L2.19025 78.9437L3 78.9437ZM131.579 32.4463L131.855 33.2078L131.544 31.6373L131.579 32.4463ZM50.2091 36.0048L50.2091 36.8145L50.2268 36.8145L50.2445 36.8138L50.2091 36.0048ZM3 36.0048L2.19025 36.0048L2.19025 36.8145L3 36.8145L3 36.0048ZM3 0.420041L3 -0.389709L2.19025 -0.389709L2.19025 0.420041L3 0.420041ZM175.705 0.420049L176.514 0.420049L176.514 -0.389702L175.705 -0.389702L175.705 0.420049ZM175.434 46.1541L50.176 90.5164L50.7166 92.043L175.975 47.6807L175.434 46.1541ZM50.1773 92.0435L175.436 136.169L175.974 134.641L50.7154 90.516L50.1773 92.0435ZM174.895 135.405L174.895 182.139L176.514 182.139L176.514 135.405L174.895 135.405ZM175.705 181.33L2.99999 181.33L2.99999 182.949L175.705 182.949L175.705 181.33ZM3.80974 182.139L3.80974 146.436L2.19024 146.436L2.19024 182.139L3.80974 182.139ZM2.99999 147.246L50.2091 147.246L50.2091 145.626L2.99999 145.626L2.99999 147.246ZM50.1737 147.245L131.663 150.804L131.733 149.186L50.2444 145.627L50.1737 147.245ZM131.974 149.233L3.27576 102.617L2.72423 104.14L131.422 150.756L131.974 149.233ZM3.80975 103.379L3.80975 78.9437L2.19025 78.9437L2.19024 103.379L3.80975 103.379ZM3.27537 79.7052L131.855 33.2078L131.304 31.6848L2.72462 78.1822L3.27537 79.7052ZM131.544 31.6373L50.1737 35.1958L50.2445 36.8138L131.615 33.2553L131.544 31.6373ZM50.2091 35.195L3 35.195L3 36.8145L50.2091 36.8145L50.2091 35.195ZM3.80975 36.0048L3.80975 0.420041L2.19025 0.420041L2.19025 36.0048L3.80975 36.0048ZM3 1.22979L175.705 1.2298L175.705 -0.389702L3 -0.389709L3 1.22979ZM174.895 0.420049L174.895 46.9174L176.514 46.9174L176.514 0.420049L174.895 0.420049ZM77.8465 317.124L77.0368 317.124L77.0368 317.934L77.8465 317.934L77.8465 317.124ZM77.8465 248.801L78.6563 248.801L78.6563 247.992L77.8465 247.992L77.8465 248.801ZM31.5864 248.801L31.5864 247.992L30.7766 247.992L30.7766 248.801L31.5864 248.801ZM31.5864 328.986L31.5864 329.795L32.3961 329.795L32.3961 328.986L31.5864 328.986ZM2.99998 328.986L2.19023 328.986L2.19023 329.795L2.99998 329.795L2.99998 328.986ZM2.99999 213.217L2.99999 212.407L2.19024 212.407L2.19024 213.217L2.99999 213.217ZM175.705 213.217L176.514 213.217L176.514 212.407L175.705 212.407L175.705 213.217ZM175.705 328.749L175.705 329.558L176.514 329.558L176.514 328.749L175.705 328.749ZM146.881 328.749L146.071 328.749L146.071 329.558L146.881 329.558L146.881 328.749ZM146.881 248.801L147.691 248.801L147.691 247.992L146.881 247.992L146.881 248.801ZM105.721 248.801L105.721 247.992L104.912 247.992L104.912 248.801L105.721 248.801ZM105.721 317.124L105.721 317.934L106.531 317.934L106.531 317.124L105.721 317.124ZM78.6563 317.124L78.6563 248.801L77.0368 248.801L77.0368 317.124L78.6563 317.124ZM77.8465 247.992L31.5864 247.992L31.5864 249.611L77.8465 249.611L77.8465 247.992ZM30.7766 248.801L30.7766 328.986L32.3961 328.986L32.3961 248.801L30.7766 248.801ZM31.5864 328.176L2.99998 328.176L2.99998 329.795L31.5864 329.795L31.5864 328.176ZM3.80974 328.986L3.80974 213.217L2.19024 213.217L2.19023 328.986L3.80974 328.986ZM2.99999 214.026L175.705 214.027L175.705 212.407L2.99999 212.407L2.99999 214.026ZM174.895 213.217L174.895 328.749L176.514 328.749L176.514 213.217L174.895 213.217ZM175.705 327.939L146.881 327.939L146.881 329.558L175.705 329.558L175.705 327.939ZM147.691 328.749L147.691 248.801L146.071 248.801L146.071 328.749L147.691 328.749ZM146.881 247.992L105.721 247.992L105.721 249.611L146.881 249.611L146.881 247.992ZM104.912 248.801L104.911 317.124L106.531 317.124L106.531 248.801L104.912 248.801ZM105.721 316.314L77.8465 316.314L77.8465 317.934L105.721 317.934L105.721 316.314ZM2.99998 490.303L2.19023 490.303L2.19023 491.113L2.99998 491.113L2.99998 490.303ZM2.99998 454.718L2.57849 454.027L2.19023 454.264L2.19023 454.718L2.99998 454.718ZM116.634 385.447L117.055 386.138L119.518 384.637L116.634 384.637L116.634 385.447ZM2.99998 385.447L2.19023 385.447L2.19023 386.257L2.99998 386.257L2.99998 385.447ZM2.99998 349.862L2.99998 349.052L2.19023 349.052L2.19023 349.862L2.99998 349.862ZM175.705 349.862L176.514 349.862L176.514 349.052L175.705 349.052L175.705 349.862ZM175.705 385.447L176.126 386.138L176.514 385.902L176.514 385.447L175.705 385.447ZM61.8334 454.837L61.412 454.146L58.9485 455.647L61.8334 455.647L61.8334 454.837ZM175.705 454.837L176.514 454.837L176.514 454.027L175.705 454.027L175.705 454.837ZM175.705 490.303L175.705 491.113L176.514 491.113L176.514 490.303L175.705 490.303ZM3.80973 490.303L3.80973 454.718L2.19023 454.718L2.19023 490.303L3.80973 490.303ZM3.42146 455.41L117.055 386.138L116.212 384.755L2.57849 454.027L3.42146 455.41ZM116.634 384.637L2.99998 384.637L2.99998 386.257L116.634 386.257L116.634 384.637ZM3.80973 385.447L3.80973 349.862L2.19023 349.862L2.19023 385.447L3.80973 385.447ZM2.99998 350.672L175.705 350.672L175.705 349.052L2.99998 349.052L2.99998 350.672ZM174.895 349.862L174.895 385.447L176.514 385.447L176.514 349.862L174.895 349.862ZM175.283 384.755L61.412 454.146L62.2548 455.529L176.126 386.138L175.283 384.755ZM61.8334 455.647L175.705 455.647L175.705 454.027L61.8334 454.027L61.8334 455.647ZM174.895 454.837L174.895 490.303L176.514 490.303L176.514 454.837L174.895 454.837ZM175.705 489.493L2.99998 489.493L2.99998 491.113L175.705 491.113L175.705 489.493ZM175.705 652.095L175.705 652.905L176.514 652.905L176.514 652.095L175.705 652.095ZM17.1152 634.303L17.7092 633.752L17.7074 633.75L17.1152 634.303ZM60.6472 519.72L60.6472 518.91L60.637 518.91L60.6472 519.72ZM175.705 519.72L176.514 519.72L176.514 518.91L175.705 518.91L175.705 519.72ZM175.705 555.305L175.705 556.114L176.514 556.114L176.514 555.305L175.705 555.305ZM36.9241 563.371L36.343 562.807L36.3347 562.815L36.9241 563.371ZM60.7659 616.392L60.7537 617.202L60.7659 617.202L60.7659 616.392ZM175.705 616.392L176.514 616.392L176.514 615.582L175.705 615.582L175.705 616.392ZM175.705 651.285L61.952 651.285L61.952 652.905L175.705 652.905L175.705 651.285ZM61.952 651.285C43.2365 651.285 28.5216 645.42 17.7092 633.752L16.5213 634.853C27.6924 646.908 42.8687 652.905 61.952 652.905L61.952 651.285ZM17.7074 633.75C6.89046 622.155 1.43741 606.241 1.43741 585.908L-0.182092 585.908C-0.182093 606.536 5.35659 622.885 16.5231 634.855L17.7074 633.75ZM1.43741 585.908C1.43741 565.888 6.7336 550.087 17.2427 538.41L16.0389 537.326C5.19714 549.373 -0.182091 565.597 -0.182092 585.908L1.43741 585.908ZM17.2427 538.41C27.741 526.745 42.1794 520.765 60.6575 520.53L60.637 518.91C41.7907 519.15 26.8914 525.268 16.0389 537.326L17.2427 538.41ZM60.6472 520.53L175.705 520.53L175.705 518.91L60.6472 518.91L60.6472 520.53ZM174.895 519.72L174.895 555.305L176.514 555.305L176.514 519.72L174.895 519.72ZM175.705 554.495L61.7148 554.495L61.7148 556.114L175.705 556.114L175.705 554.495ZM61.7148 554.495C50.2982 554.495 41.7774 557.208 36.343 562.807L37.5051 563.935C42.509 558.779 50.5153 556.114 61.7148 556.114L61.7148 554.495ZM36.3347 562.815C31.0171 568.46 28.4043 576.192 28.4043 585.908L30.0238 585.908C30.0238 576.486 32.551 569.194 37.5135 563.926L36.3347 562.815ZM28.4043 585.908C28.4043 596.047 31.0716 603.833 36.5394 609.116C41.9999 614.392 50.1205 617.042 60.7537 617.201L60.778 615.582C50.3767 615.426 42.7214 612.837 37.6647 607.951C32.6151 603.072 30.0238 595.774 30.0238 585.908L28.4043 585.908ZM60.7659 617.202L175.705 617.202L175.705 615.582L60.7659 615.582L60.7659 617.202ZM174.895 616.392L174.895 652.095L176.514 652.095L176.514 616.392L174.895 616.392Z" fill="#5B5B5B"/>
</svg>
