<svg width="115" height="149" fill="none" xmlns="http://www.w3.org/2000/svg"><path d="M79.082 108.207c0-5.013-1.79-8.92-5.371-11.719-3.516-2.8-9.733-5.696-18.652-8.691-8.92-2.995-16.211-5.892-21.875-8.691C14.759 70.056 5.547 57.62 5.547 41.8c0-7.878 2.279-14.811 6.836-20.801 4.622-6.055 11.133-10.742 19.531-14.063 8.398-3.385 17.839-5.078 28.32-5.078 10.222 0 19.369 1.823 27.442 5.47 8.138 3.645 14.453 8.853 18.945 15.624 4.492 6.706 6.738 14.388 6.738 23.047h-34.18c0-5.794-1.79-10.286-5.37-13.477-3.516-3.19-8.301-4.785-14.356-4.785-6.12 0-10.97 1.367-14.55 4.102-3.516 2.67-5.274 6.087-5.274 10.254 0 3.646 1.953 6.966 5.86 9.96 3.906 2.93 10.774 5.99 20.605 9.18 9.83 3.125 17.903 6.51 24.219 10.157 15.364 8.854 23.046 21.06 23.046 36.621 0 12.435-4.687 22.2-14.062 29.297-9.375 7.096-22.233 10.644-38.574 10.644-11.524 0-21.973-2.051-31.348-6.152-9.31-4.167-16.341-9.831-21.094-16.992-4.687-7.227-7.031-15.528-7.031-24.903h34.375c0 7.617 1.953 13.249 5.86 16.895 3.97 3.581 10.383 5.371 19.238 5.371 5.664 0 10.123-1.205 13.379-3.613 3.32-2.474 4.98-5.925 4.98-10.352Z" fill="#F2F2F2"/><path d="M32.963 79.554c5.691 2.813 13.005 5.718 21.936 8.717 8.911 2.992 15.058 5.867 18.5 8.608l.004.003c3.446 2.694 5.179 6.448 5.179 11.325 0 4.281-1.595 7.577-4.778 9.95-3.14 2.324-7.483 3.515-13.081 3.515-8.804 0-15.065-1.783-18.9-5.24-3.767-3.517-5.698-8.989-5.698-16.526v-.5H.75v.5c0 9.463 2.367 17.86 7.112 25.175l.003.004c4.814 7.254 11.926 12.974 21.306 17.172l.004.002c9.445 4.132 19.964 6.194 31.548 6.194 16.408 0 29.386-3.562 38.876-10.746 9.508-7.197 14.26-17.114 14.26-29.695 0-15.767-7.803-28.126-23.296-37.054-6.356-3.67-14.465-7.068-24.317-10.2-9.82-3.187-16.62-6.226-20.456-9.102-3.828-2.935-5.661-6.123-5.661-9.562 0-4 1.676-7.275 5.076-9.856 3.468-2.648 8.2-4 14.248-4 5.966 0 10.62 1.57 14.02 4.656l.003.003C76.928 35.972 78.68 40.316 78.68 46v.5h35.179V46c0-8.75-2.271-16.53-6.822-23.324-4.549-6.857-10.941-12.123-19.156-15.804C79.734 3.193 70.516 1.36 60.234 1.36c-10.535 0-20.04 1.702-28.505 5.114-8.467 3.348-15.057 8.085-19.744 14.224-4.627 6.081-6.938 13.122-6.938 21.104 0 16.07 9.38 28.65 27.916 37.753Zm0 0 .22-.448-.221.448Z" stroke="#000" stroke-opacity=".5"/></svg>