<svg width="24" height="24" fill="none" xmlns="http://www.w3.org/2000/svg"><path d="M23.894 5.135a.716.716 0 0 0-.672-.339l-1.197.105 1.144-2.306a.716.716 0 0 0-.956-.961l-3.027 1.483c-1.87-.988-4.207-.695-5.816.77-1.341 1.223-2.047 3.103-1.915 4.977-3.508-.351-6.477-2.359-8.233-5.603a.716.716 0 0 0-1.204-.085C.928 4.646.852 6.664 1.706 8.323c-.235-.06-.486-.14-.763-.232a.716.716 0 0 0-.933.795c.337 2.048 1.532 3.622 3.418 4.553a6.017 6.017 0 0 1-.751.208.716.716 0 0 0-.377 1.19c1.359 1.452 3.321 2.167 4.715 2.51-1.585 1.24-3.296 1.448-5.782 1.363a.717.717 0 0 0-.554 1.196c1.036 1.143 4.812 2.43 8.78 2.527.158.004.318.006.481.006 2.787 0 6.47-.598 9.114-3.241 2-2.001 3.252-4.305 3.72-6.846.377-2.053.138-3.697.024-4.487l-.025-.174 1.12-1.804a.716.716 0 0 0 .001-.752ZM21.381 8.07c.213 1.464.859 5.918-3.34 10.116-2.44 2.44-5.994 2.878-8.547 2.816-2.177-.053-4.125-.47-5.537-.944a8.846 8.846 0 0 0 1.566-.329c1.33-.413 2.452-1.157 3.534-2.34a.716.716 0 0 0-.437-1.193c-.683-.087-2.733-.432-4.348-1.546.465-.19.914-.429 1.343-.713a.716.716 0 0 0-.214-1.289c-1.322-.346-2.917-1.121-3.653-2.852.47.082.98.102 1.525-.02a.715.715 0 0 0 .359-1.196c-.915-.947-1.258-2.314-.964-3.482A12.21 12.21 0 0 0 6.244 8.56a11.874 11.874 0 0 0 6.026 1.788.719.719 0 0 0 .716-.871c-.371-1.669.158-3.447 1.348-4.532 1.235-1.125 3.06-1.295 4.438-.414.21.134.476.15.7.04l1.479-.725-.774 1.56a.716.716 0 0 0 .703 1.031l1.043-.09-.48.774c-.162.26-.128.49-.062.949Z" fill="#000"/></svg>