<svg width="48" height="46" viewBox="0 0 48 46" fill="none" xmlns="http://www.w3.org/2000/svg">
<path d="M35.0404 8.46598C33.0942 8.46598 31.3101 8.85522 29.6883 9.66613C28.4233 10.2824 27.2231 11.1582 26.1527 12.2935V0H22.1954V22.6732V22.7381C22.1954 22.7706 22.1954 22.7706 22.1954 22.803C22.1954 23.03 22.1954 23.2571 22.1954 23.5166C19.86 21.3109 16.9731 20.1756 13.5673 20.1756C9.83705 20.1756 6.69068 21.538 4.2255 24.2626C1.98736 26.7278 0.884521 29.6796 0.884521 33.053C0.884521 36.4264 2.08468 39.4106 4.42012 41.9406C6.788 44.4707 9.83705 45.7682 13.5673 45.7682H13.5997C17.4272 45.4438 20.3141 44.0815 22.1306 41.7136V45.8655H26.1851L26.2824 45.4762C26.3149 45.3789 26.3473 45.2167 26.2824 33.053C26.2824 32.6962 26.25 31.9177 26.1851 30.8797C27.1907 31.7231 28.2611 32.4043 29.3639 32.8908C31.0831 33.6368 32.9644 34.0261 34.943 34.0261C38.3813 34.0261 41.3979 32.7611 43.8307 30.2959C46.2634 27.8307 47.5285 24.7816 47.5285 21.3109C47.5285 17.7753 46.2959 14.6938 43.8631 12.2286C41.4304 9.73101 38.4786 8.46598 35.0404 8.46598ZM6.23658 37.7239C5.36078 36.2318 4.93911 34.6748 4.93911 33.0854C4.93911 30.6202 5.78246 28.4794 7.5016 26.7278C9.18831 24.9762 11.2318 24.1005 13.5673 24.1005C15.9351 24.1005 17.9138 24.9438 19.5681 26.7278C20.2168 27.409 20.7358 28.155 21.125 28.9335C21.644 30.6527 21.8386 32.5016 21.7413 34.3829C19.5032 40.3188 15.8703 42.6542 10.6804 41.519C8.60445 40.4485 7.11237 39.1835 6.23658 37.7239ZM43.5388 21.1812C43.5388 22.7706 43.1495 24.2951 42.3386 25.6899C41.5601 27.0846 40.4573 28.1875 39.1274 28.966C37.7975 29.7444 36.3054 30.1337 34.716 30.1337C32.2832 30.1337 30.1749 29.2579 28.4881 27.5387C26.8014 25.8196 25.9256 23.6463 25.9256 21.0838C25.9256 19.3971 26.3149 17.8726 27.0609 16.5427C27.807 15.2128 28.9098 14.11 30.3046 13.3315C31.6994 12.553 33.1915 12.1313 34.7484 12.1313C36.2729 12.1313 37.7326 12.5206 39.0949 13.299C40.4573 14.0775 41.5277 15.2128 42.3386 16.64C43.1171 18.1321 43.5388 19.6242 43.5388 21.1812Z" fill="black"/>
</svg>
